<?xml version="1.0" encoding="UTF-8" standalone="no"?>
<svg
   xmlns:dc="http://purl.org/dc/elements/1.1/"
   xmlns:cc="http://creativecommons.org/ns#"
   xmlns:rdf="http://www.w3.org/1999/02/22-rdf-syntax-ns#"
   xmlns:svg="http://www.w3.org/2000/svg"
   xmlns="http://www.w3.org/2000/svg"
   xmlns:sodipodi="http://sodipodi.sourceforge.net/DTD/sodipodi-0.dtd"
   xmlns:inkscape="http://www.inkscape.org/namespaces/inkscape"
   version="1.1"
   id="svg2"
   xml:space="preserve"
   width="1174.9314"
   height="446.66653"
   viewBox="0 0 1174.9314 446.66654"
   sodipodi:docname="unrealengine.svg"
   inkscape:version="1.0.2-2 (e86c870879, 2021-01-15)"><metadata
     id="metadata8"><rdf:RDF><cc:Work
         rdf:about=""><dc:format>image/svg+xml</dc:format><dc:type
           rdf:resource="http://purl.org/dc/dcmitype/StillImage" /><dc:title></dc:title></cc:Work></rdf:RDF></metadata><defs
     id="defs6" /><sodipodi:namedview
     pagecolor="#ffffff"
     bordercolor="#666666"
     borderopacity="1"
     objecttolerance="10"
     gridtolerance="10"
     guidetolerance="10"
     inkscape:pageopacity="0"
     inkscape:pageshadow="2"
     inkscape:window-width="2560"
     inkscape:window-height="1377"
     id="namedview4"
     inkscape:document-rotation="0"
     showgrid="false"
     fit-margin-top="0"
     fit-margin-left="0"
     fit-margin-right="0"
     fit-margin-bottom="0"
     inkscape:zoom="0.7670303"
     inkscape:cx="586.23015"
     inkscape:cy="222.77866"
     inkscape:window-x="-8"
     inkscape:window-y="-8"
     inkscape:window-maximized="1"
     inkscape:current-layer="g10" /><g
     id="g10"
     inkscape:groupmode="layer"
     inkscape:label="ink_ext_XXXXXX"
     transform="matrix(1.3333333,0,0,-1.3333333,-126.90986,571.49199)"><g
       id="g12"
       transform="scale(0.1)"><path
         d="m 6273.94,1996.27 h -397.69 v 364.92 h 391.45 v -80.68 h -284.89 v -62.09 h 269.81 v -76.23 h -269.81 v -62.87 h 291.13 v -83.05 0"
         style="fill:#2c2b2b;fill-opacity:1;fill-rule:evenodd;stroke:none"
         id="path14" /><path
         d="m 8562.04,1996.27 h -391.46 v 359.19 h 385.33 v -79.41 h -280.42 v -61.11 h 265.57 v -75.03 h -265.57 v -61.89 h 286.55 v -81.75 0"
         style="fill:#2c2b2b;fill-opacity:1;fill-rule:evenodd;stroke:none"
         id="path16" /><path
         d="m 6813.19,1996.27 h -160.9 l -211.84,272.97 h -2.08 v -272.97 h -105.53 v 364.92 h 163.5 l 209.24,-273.23 h 2.08 v 273.23 h 105.53 v -364.92 0"
         style="fill:#2c2b2b;fill-opacity:1;fill-rule:evenodd;stroke:none"
         id="path18" /><path
         d="m 8088.34,1996.27 h -160.9 l -211.85,272.97 h -2.08 v -272.97 h -105.52 v 364.92 h 163.49 l 209.25,-273.23 h 2.08 v 273.23 h 105.53 v -364.92 0"
         style="fill:#2c2b2b;fill-opacity:1;fill-rule:evenodd;stroke:none"
         id="path20" /><path
         d="m 7124.11,1991.45 c -33.78,0 -62.93,0.82 -87.44,2.47 -24.53,1.65 -45.35,4.81 -62.5,9.48 -17.15,4.68 -31.09,11.18 -41.8,19.5 -10.71,8.31 -19.02,19.14 -24.94,32.48 -5.92,13.34 -9.91,29.51 -11.96,48.48 -2.05,18.99 -3.09,41.47 -3.09,67.46 v 10.65 c 0,26.17 1.07,48.82 3.22,67.97 2.14,19.15 6.21,35.39 12.21,48.73 6,13.34 14.36,24.13 25.08,32.36 10.71,8.23 24.65,14.64 41.8,19.23 17.13,4.59 37.96,7.67 62.49,9.24 24.52,1.55 53.49,2.33 86.93,2.33 h 16.2 c 28.12,0 52.72,-0.61 73.81,-1.82 21.09,-1.21 39.22,-3.42 54.4,-6.63 15.17,-3.2 27.69,-7.57 37.54,-13.12 9.87,-5.55 17.67,-12.6 23.41,-21.18 5.75,-8.58 9.73,-18.84 11.96,-30.8 2.23,-11.96 3.33,-25.91 3.33,-41.85 v -14.04 h -103.38 v 4.43 c 0,8.31 -1.28,15.28 -3.85,20.91 -2.57,5.63 -7.62,10.14 -15.15,13.52 -7.55,3.39 -18.12,5.77 -31.74,7.15 -13.61,1.38 -31.56,2.09 -53.82,2.09 h -8.99 c -20.22,0 -37.47,-0.36 -51.77,-1.05 -14.3,-0.7 -26.21,-2.21 -35.72,-4.55 -9.49,-2.33 -17.03,-5.68 -22.61,-10 -5.56,-4.33 -9.71,-10.24 -12.45,-17.68 -2.74,-7.45 -4.5,-16.69 -5.27,-27.68 -0.77,-11.01 -1.16,-24.22 -1.16,-39.64 v -6.5 c 0,-15.08 0.39,-27.98 1.16,-38.73 0.77,-10.74 2.53,-19.79 5.27,-27.16 2.74,-7.37 6.89,-13.21 12.45,-17.55 5.58,-4.32 13.12,-7.65 22.61,-10.01 9.52,-2.33 21.43,-3.84 35.72,-4.54 14.3,-0.69 31.56,-1.05 51.77,-1.05 h 8.99 c 16.45,0 30.62,0.32 42.52,0.92 11.91,0.61 21.93,1.56 30.06,2.86 8.14,1.31 14.65,3.12 19.53,5.46 4.89,2.34 8.65,5.28 11.3,8.83 2.65,3.55 4.42,7.71 5.28,12.48 0.85,4.77 1.27,10.35 1.27,16.77 v 10.14 h -139.64 v 70.43 h 241.74 v -81.1 c 0,-17.49 -1.15,-32.87 -3.47,-46.12 -2.32,-13.26 -6.42,-24.69 -12.35,-34.31 -5.9,-9.63 -13.87,-17.6 -23.91,-23.91 -10.03,-6.34 -22.76,-11.37 -38.2,-15.09 -15.43,-3.73 -33.9,-6.37 -55.42,-7.92 -21.52,-1.57 -46.59,-2.34 -75.22,-2.34 h -16.2 v 0"
         style="fill:#2c2b2b;fill-opacity:1;fill-rule:evenodd;stroke:none"
         id="path22" /><path
         d="m 7530.15,1995.61 h -106.99 v 362.06 h 106.99 v -362.06 0"
         style="fill:#2c2b2b;fill-opacity:1;fill-rule:evenodd;stroke:none"
         id="path24" /><path
         d="m 5056.16,2552.46 c -51.68,0 -97,1.38 -135.99,4.13 -38.98,2.74 -72.6,7.48 -100.87,14.2 -28.25,6.71 -51.67,15.8 -70.25,27.26 -18.58,11.45 -33.4,25.8 -44.42,43.06 -11.04,17.25 -18.82,37.79 -23.35,61.62 -4.53,23.82 -6.8,51.6 -6.8,83.38 v 411.84 h 187.67 v -350.92 c 0,-21.68 0.75,-40.32 2.26,-55.89 1.51,-15.58 4.61,-28.86 9.3,-39.85 4.68,-11 11.4,-19.86 20.16,-26.57 8.76,-6.73 20.4,-11.99 34.92,-15.81 14.5,-3.82 32.32,-6.34 53.48,-7.56 21.15,-1.22 46.38,-1.83 75.71,-1.83 h 15.86 c 29.31,0 54.55,0.68 75.7,2.06 21.15,1.38 38.98,3.9 53.49,7.56 14.51,3.67 26.14,8.93 34.9,15.8 8.77,6.88 15.49,15.73 20.17,26.58 4.68,10.83 7.79,24.12 9.3,39.86 1.5,15.72 2.27,34.28 2.27,55.65 v 350.92 h 187.65 v -411.84 c 0,-31.46 -2.11,-59.19 -6.34,-83.15 -4.22,-23.98 -11.78,-44.6 -22.65,-61.85 -10.89,-17.26 -25.55,-31.61 -43.99,-43.06 -18.42,-11.46 -41.76,-20.55 -70.03,-27.26 -28.26,-6.72 -62.03,-11.46 -101.3,-14.2 -39.29,-2.75 -85.08,-4.13 -137.36,-4.13 h -19.49 v 0"
         style="fill:#2c2b2b;fill-opacity:1;fill-rule:evenodd;stroke:none"
         id="path26" /><path
         d="m 6422.25,2560.28 h -280.59 l -369.45,477.36 h -3.63 v -477.36 h -184.03 v 638.16 h 285.13 l 364.9,-477.83 h 3.63 v 477.83 h 184.04 v -638.16 0"
         style="fill:#2c2b2b;fill-opacity:1;fill-rule:evenodd;stroke:none"
         id="path28" /><path
         d="m 7309.5,2560.28 h -185.39 v 51.77 c 0,18.62 -0.76,34.66 -2.28,48.1 -1.51,13.43 -4.67,24.81 -9.51,34.13 -4.83,9.32 -11.64,16.8 -20.4,22.44 -8.77,5.66 -20.33,10.01 -34.68,13.06 -14.36,3.05 -32.04,5.11 -53.03,6.19 -21.01,1.06 -46.01,1.6 -75.02,1.6 h -187.67 v -177.29 h -185.86 v 638.16 h 495 c 51.99,0 94.75,-3.2 128.29,-9.62 33.55,-6.41 59.98,-17.18 79.33,-32.29 19.34,-15.12 32.7,-35.13 40.12,-60.02 7.4,-24.9 11.1,-55.66 11.1,-92.31 v -22.45 c 0,-25.05 -1.96,-46.96 -5.89,-65.74 -3.92,-18.78 -10.27,-34.97 -19.04,-48.56 -8.76,-13.59 -20.1,-24.81 -34,-33.67 -13.89,-8.86 -30.97,-15.58 -51.21,-20.16 v -3.66 c 22.35,-3.67 40.72,-8.33 55.07,-13.98 14.35,-5.65 25.61,-14.04 33.77,-25.19 8.15,-11.16 13.75,-25.74 16.77,-43.76 3.03,-18.02 4.53,-41.08 4.53,-69.17 z m -334.07,316.11 c 32.33,0 58.09,0.98 77.28,2.97 19.18,1.99 33.77,6.11 43.74,12.37 9.97,6.26 16.48,14.96 19.49,26.12 3.02,11.14 4.55,25.87 4.55,44.2 v 11 c 0,18.02 -1.53,32.59 -4.55,43.75 -3.01,11.14 -9.59,19.69 -19.71,25.64 -10.13,5.97 -24.79,9.93 -43.98,11.92 -19.19,1.98 -44.8,2.98 -76.82,2.98 h -233.91 v -180.95 h 233.91 v 0"
         style="fill:#2c2b2b;fill-opacity:1;fill-rule:evenodd;stroke:none"
         id="path30" /><path
         d="m 8124.87,2560.28 h -693.54 v 638.16 h 682.66 v -141.1 H 7617.18 V 2948.76 H 8087.7 V 2815.45 H 7617.18 V 2705.5 h 507.69 v -145.22 0"
         style="fill:#2c2b2b;fill-opacity:1;fill-rule:evenodd;stroke:none"
         id="path32" /><path
         d="m 9080.57,2559.79 h -202.61 l -58.48,114.53 h -398.01 l -57.57,-114.53 h -200.8 l 342.69,638.16 h 230.28 z m -328.64,247.85 -130.09,256.08 h -4.54 l -129.19,-256.08 h 263.82 v 0"
         style="fill:#2c2b2b;fill-opacity:1;fill-rule:evenodd;stroke:none"
         id="path34" /><path
         d="m 9763.81,2559.79 h -614.68 v 638.16 h 187.66 v -489.73 h 427.02 v -148.43 0"
         style="fill:#2c2b2b;fill-opacity:1;fill-rule:evenodd;stroke:none"
         id="path36" /><path
         d="m 3357.04,2112.05 c -59.97,0.3 -83.52,35.51 -83.52,35.51 -3.23,16.34 -8.81,252.61 -10.8,489.01 -2.04,244.91 -0.24,490 12.04,490.74 69.15,129.57 289.78,390.86 289.78,390.86 -412.02,-81.09 -636.73,-350.63 -636.73,-350.63 -66.31,52.19 -201.69,43.5 -201.69,43.5 63.37,-34.81 126.75,-136.23 126.75,-220.25 v -825.85 c 0,0 -138.28,-121.68 -244.89,-121.68 -63.02,0 -101.88,34.43 -123.13,62.59 -14.68,19.5 -20.95,35.94 -20.95,35.94 v 1019.99 c -13.07,-9.44 -31.65,-17.33 -50.75,-17.22 -22.64,0.1 -46.06,11.44 -61.99,44.78 -12.01,25.09 -19.77,62.66 -19.77,117.32 0,188.32 213.21,312.95 213.21,312.95 -270.83,-72.44 -521.49,-211.54 -855.72,-594.04 -334.2,-382.51 -270.82,-698.35 -270.82,-698.35 0,0 92.19,217.34 314.05,446.25 105.07,108.42 183.63,144.68 237.24,144.82 59.58,0.17 88.33,-44.32 88.33,-83.98 v -776.57 c 0,-76.59 -49.45,-93.34 -95.04,-92.5 -38.9,0.73 -74.95,14.22 -74.95,14.22 227.61,-330.32 772.15,-376.69 772.15,-376.69 l 239.14,255.01 5.61,-4.8 219.11,-186.42 c 400.49,237.58 593.55,678.06 593.55,678.06 -178.68,-188.89 -292.6,-232.92 -360.21,-232.57"
         style="fill:#2c2b2b;fill-opacity:1;fill-rule:evenodd;stroke:none"
         id="path38" /><path
         d="m 2613.15,4212.47 c 424.23,0 823.07,-166.56 1123.04,-469 299.97,-302.44 465.17,-704.57 465.17,-1132.28 0,-427.71 -165.2,-829.84 -465.17,-1132.29 -299.97,-302.43 -698.81,-468.99 -1123.04,-468.99 -424.22,0 -823.06,166.56 -1123.03,468.99 -299.98,302.45 -465.18,704.58 -465.18,1132.29 0,427.71 165.2,829.84 465.18,1132.28 299.97,302.44 698.81,469 1123.03,469 m 0,73.72 c -917.53,0 -1661.326,-749.92 -1661.326,-1675 0,-925.08 743.796,-1674.999 1661.326,-1674.999 917.53,0 1661.33,749.919 1661.33,1674.999 0,925.08 -743.8,1675 -1661.33,1675"
         style="fill:#2c2b2b;fill-opacity:1;fill-rule:evenodd;stroke:none"
         id="path40" /></g></g></svg>
